if (_typeface_js && _typeface_js.loadFace) _typeface_js.loadFace({"glyphs":{"S":{"x_min":73.921875,"x_max":760.96875,"ha":827,"o":"m 745 694 l 678 694 l 667 834 q 567 906 630 880 q 419 932 504 932 q 229 879 297 932 q 161 748 161 826 q 222 623 161 673 q 435 535 284 573 q 677 425 594 495 q 760 243 760 356 q 664 55 760 125 q 418 -14 568 -14 q 222 23 312 -14 q 73 129 131 60 l 73 302 l 140 302 l 151 158 q 266 80 196 107 q 418 54 336 54 q 607 105 535 54 q 679 242 679 157 q 619 374 679 322 q 408 464 558 425 q 163 570 246 505 q 80 746 80 635 q 174 930 80 859 q 419 1001 269 1001 q 612 964 527 1001 q 745 863 696 927 l 745 694 "},"\u0000":{"x_min":0,"x_max":0,"ha":0},"/":{"x_min":0,"x_max":485.609375,"ha":541,"o":"m 73 -84 l 0 -84 l 412 987 l 485 987 l 73 -84 "},"K":{"x_min":48.15625,"x_max":917.640625,"ha":961,"o":"m 48 59 l 158 68 l 158 918 l 48 927 l 48 987 l 349 987 l 349 927 l 239 918 l 239 533 l 374 533 l 706 921 l 611 927 l 611 987 l 887 987 l 887 927 l 800 918 l 447 501 l 828 67 l 917 59 l 917 0 l 636 0 l 636 59 l 729 65 l 375 464 l 239 464 l 239 68 l 349 59 l 349 0 l 48 0 l 48 59 "},"7":{"x_min":51.546875,"x_max":699.25,"ha":756,"o":"m 699 918 q 454 533 539 729 q 340 82 368 337 l 333 0 l 252 0 l 259 82 q 377 537 288 334 q 615 918 466 740 l 128 918 l 123 779 l 51 779 l 51 987 l 699 987 l 699 918 "},"d":{"x_min":65.78125,"x_max":765.71875,"ha":825,"o":"m 575 105 q 481 16 539 48 q 345 -14 423 -14 q 140 84 214 -14 q 65 346 65 182 l 65 360 q 140 641 65 536 q 347 747 214 747 q 480 715 423 747 q 573 623 536 682 l 573 988 l 463 997 l 463 1058 l 573 1058 l 655 1058 l 655 68 l 765 59 l 765 0 l 582 0 l 575 105 m 147 346 q 201 134 147 213 q 361 56 254 56 q 492 91 439 56 q 573 188 544 126 l 573 535 q 495 637 546 598 q 362 676 444 676 q 201 589 255 676 q 147 360 147 501 l 147 346 "},",":{"x_min":40.6875,"x_max":183.796875,"ha":266,"o":"m 183 32 q 158 -89 183 -29 q 88 -190 132 -149 l 40 -155 q 87 -66 72 -110 q 103 31 103 -22 l 103 127 l 183 127 l 183 32 "},"Y":{"x_min":37.296875,"x_max":926.453125,"ha":965,"o":"m 308 927 l 213 920 l 480 438 l 749 920 l 654 927 l 654 987 l 926 987 l 926 927 l 842 920 l 520 360 l 520 68 l 631 59 l 631 0 l 328 0 l 328 59 l 439 68 l 439 365 l 120 920 l 37 927 l 37 987 l 308 987 l 308 927 "},"E":{"x_min":48.15625,"x_max":784.03125,"ha":872,"o":"m 644 478 l 239 478 l 239 68 l 706 68 l 712 216 l 784 216 l 784 0 l 48 0 l 48 59 l 158 68 l 158 918 l 48 927 l 48 987 l 158 987 l 780 987 l 780 770 l 708 770 l 702 918 l 239 918 l 239 547 l 644 547 l 644 478 "},"y":{"x_min":31.203125,"x_max":769.78125,"ha":796,"o":"m 769 673 l 695 667 l 398 -117 q 324 -244 370 -191 q 191 -296 279 -296 q 157 -293 177 -296 q 127 -286 137 -290 l 137 -219 q 163 -222 145 -220 q 188 -223 181 -223 q 273 -186 242 -223 q 328 -89 304 -149 l 366 8 l 105 667 l 31 673 l 31 733 l 283 733 l 283 673 l 196 666 l 375 198 l 400 110 l 404 110 l 605 666 l 516 673 l 516 733 l 769 733 l 769 673 "},"\"":{"x_min":112.578125,"x_max":345.890625,"ha":482,"o":"m 183 911 l 160 734 l 112 734 l 113 907 l 113 1058 l 183 1058 l 183 911 m 345 911 l 323 734 l 274 734 l 276 909 l 276 1058 l 345 1058 l 345 911 "},"g":{"x_min":69.171875,"x_max":659.90625,"ha":779,"o":"m 69 360 q 144 641 69 536 q 352 747 219 747 q 487 713 430 747 q 581 616 544 678 l 591 733 l 659 733 l 659 9 q 583 -214 659 -132 q 369 -296 506 -296 q 256 -283 316 -296 q 151 -248 196 -270 l 173 -179 q 266 -212 217 -200 q 368 -223 314 -223 q 525 -162 472 -223 q 578 9 578 -100 l 578 102 q 484 15 541 46 q 350 -14 427 -14 q 143 84 218 -14 q 69 346 69 182 l 69 360 m 150 346 q 204 135 150 214 q 365 56 258 56 q 497 92 444 56 q 578 191 550 128 l 578 531 q 500 636 551 596 q 366 676 449 676 q 205 588 259 676 q 150 360 150 500 l 150 346 "},"e":{"x_min":69.171875,"x_max":668.046875,"ha":747,"o":"m 389 -14 q 160 87 250 -14 q 69 345 69 188 l 69 382 q 159 643 69 539 q 378 747 250 747 q 590 661 513 747 q 668 434 668 576 l 668 364 l 149 364 l 149 345 q 216 138 149 221 q 389 54 282 54 q 518 75 464 54 q 609 135 571 96 l 644 80 q 539 11 602 36 q 389 -14 476 -14 m 378 678 q 227 609 288 678 q 155 436 166 540 l 157 433 l 587 433 l 587 453 q 531 613 587 549 q 378 678 474 678 "},"J":{"x_min":36.484375,"x_max":732.484375,"ha":785,"o":"m 732 987 l 732 927 l 621 918 l 621 280 q 541 65 621 145 q 333 -14 461 -14 q 113 57 194 -14 q 36 267 33 129 l 37 271 l 113 271 q 170 109 113 164 q 333 54 227 54 q 482 115 423 54 q 540 280 540 177 l 540 918 l 430 927 l 430 987 l 621 987 l 732 987 "},"|":{"x_min":101.734375,"x_max":170.234375,"ha":289,"o":"m 170 -183 l 101 -183 l 101 987 l 170 987 l 170 -183 "},"^":{"x_min":48.15625,"x_max":514.09375,"ha":572,"o":"m 126 494 l 48 494 l 250 987 l 311 987 l 514 494 l 435 494 l 301 822 l 282 893 l 278 893 l 257 822 l 126 494 "},"q":{"x_min":65.78125,"x_max":762.328125,"ha":776,"o":"m 65 360 q 140 641 65 536 q 347 747 214 747 q 479 715 423 747 q 572 625 535 684 l 580 733 l 651 733 l 651 -212 l 762 -221 l 762 -282 l 459 -282 l 459 -221 l 570 -212 l 570 96 q 476 14 533 42 q 345 -14 420 -14 q 140 84 214 -14 q 65 346 65 182 l 65 360 m 147 346 q 201 133 147 213 q 361 54 254 54 q 489 88 437 54 q 570 182 541 122 l 570 540 q 491 639 541 600 q 362 678 440 678 q 201 589 255 678 q 147 360 147 501 l 147 346 "},"b":{"x_min":-5.421875,"x_max":696.53125,"ha":768,"o":"m 696 346 q 621 83 696 181 q 416 -14 547 -14 q 277 17 335 -14 q 183 110 219 50 l 174 0 l 105 0 l 105 988 l -5 997 l -5 1058 l 185 1058 l 185 618 q 279 713 222 680 q 415 747 336 747 q 621 641 547 747 q 696 360 696 536 l 696 346 m 614 360 q 560 589 614 501 q 400 676 505 676 q 262 634 314 676 q 185 526 210 592 l 185 195 q 266 93 212 131 q 401 56 320 56 q 560 134 507 56 q 614 346 614 213 l 614 360 "},"D":{"x_min":48.15625,"x_max":862.703125,"ha":950,"o":"m 445 987 q 744 866 626 987 q 862 556 862 746 l 862 430 q 744 120 862 240 q 445 0 626 0 l 48 0 l 48 59 l 158 68 l 158 918 l 48 927 l 48 987 l 158 987 l 445 987 m 239 918 l 239 68 l 445 68 q 686 170 592 68 q 781 430 781 273 l 781 558 q 686 815 781 713 q 445 918 591 918 l 239 918 "},"z":{"x_min":78.671875,"x_max":655.84375,"ha":732,"o":"m 178 68 l 577 68 l 583 207 l 655 207 l 655 0 l 78 0 l 78 59 l 520 663 l 158 663 l 153 525 l 80 525 l 80 733 l 623 733 l 623 673 l 178 68 "},"w":{"x_min":37.984375,"x_max":1099.40625,"ha":1146,"o":"m 284 673 l 191 666 l 310 238 l 338 107 l 342 107 l 377 238 l 533 733 l 602 733 l 759 238 l 794 103 l 798 103 l 829 238 l 944 666 l 852 673 l 852 733 l 1099 733 l 1099 673 l 1028 668 l 833 0 l 764 0 l 600 501 l 569 628 l 564 628 l 533 501 l 372 0 l 303 0 l 109 668 l 37 673 l 37 733 l 284 733 l 284 673 "},"$":{"x_min":55.515625,"x_max":666.015625,"ha":744,"o":"m 584 243 q 535 366 584 318 q 363 457 486 413 q 154 564 222 501 q 86 742 86 628 q 154 921 86 852 q 339 1000 222 990 l 339 1137 l 408 1137 l 408 1000 q 592 911 526 989 q 656 700 657 833 l 654 697 l 578 697 q 523 864 578 800 q 372 929 469 929 q 220 876 271 929 q 168 744 168 824 q 214 619 168 666 q 391 529 260 572 q 598 420 531 482 q 666 244 666 358 q 595 64 666 132 q 406 -12 525 -2 l 406 -141 l 337 -141 l 337 -12 q 133 65 214 -4 q 55 279 52 136 l 57 283 l 132 283 q 201 110 132 163 q 367 57 270 57 q 525 110 467 57 q 584 243 584 162 "},"\\":{"x_min":24.421875,"x_max":515.453125,"ha":549,"o":"m 24 987 l 103 987 l 515 -84 l 436 -84 l 24 987 "},"~":{"x_min":82.0625,"x_max":836.921875,"ha":933,"o":"m 836 501 q 781 350 836 414 q 645 286 727 286 q 536 310 585 286 q 427 388 487 335 q 347 442 384 424 q 271 461 309 461 q 182 420 218 461 q 147 311 147 379 l 82 321 q 135 472 82 410 q 271 533 189 533 q 381 508 330 533 q 491 432 431 482 q 570 376 534 393 q 645 358 606 358 q 734 402 697 358 q 771 512 771 446 l 836 501 "},"-":{"x_min":104.453125,"x_max":428.640625,"ha":538,"o":"m 428 386 l 104 386 l 104 455 l 428 455 l 428 386 "},"Q":{"x_min":71.890625,"x_max":925.78125,"ha":992,"o":"m 920 486 q 867 229 920 342 q 721 53 815 116 l 925 -92 l 869 -143 l 647 14 q 572 -7 611 0 q 493 -14 533 -14 q 188 125 305 -14 q 71 486 71 265 l 71 499 q 188 861 71 721 q 492 1001 305 1001 q 801 861 682 1001 q 920 499 920 721 l 920 486 m 838 501 q 745 811 838 693 q 492 930 651 930 q 244 811 335 930 q 153 501 153 693 l 153 486 q 244 174 153 293 q 493 56 336 56 q 746 174 653 56 q 838 486 838 293 l 838 501 "},"M":{"x_min":48.15625,"x_max":1214.015625,"ha":1262,"o":"m 1029 868 l 1025 869 l 658 0 l 602 0 l 236 865 l 231 864 l 239 436 l 239 68 l 349 59 l 349 0 l 48 0 l 48 59 l 158 68 l 158 918 l 48 927 l 48 987 l 158 987 l 265 987 l 628 118 l 632 118 l 996 987 l 1214 987 l 1214 927 l 1103 918 l 1103 68 l 1214 59 l 1214 0 l 912 0 l 912 59 l 1022 68 l 1022 436 l 1029 868 "},"C":{"x_min":69.859375,"x_max":834.21875,"ha":915,"o":"m 834 678 l 771 678 l 759 828 q 657 903 720 874 q 511 932 594 932 q 248 812 345 932 q 150 501 150 691 l 150 486 q 247 175 150 296 q 501 54 343 54 q 652 83 584 54 q 759 158 720 112 l 771 308 l 834 308 l 834 134 q 699 28 788 71 q 501 -14 611 -14 q 190 126 311 -14 q 69 486 69 267 l 69 499 q 190 861 69 720 q 505 1001 310 1001 q 701 958 615 1001 q 834 851 788 915 l 834 678 "},"[":{"x_min":106.484375,"x_max":329.609375,"ha":372,"o":"m 329 1059 l 187 1059 l 187 -142 l 329 -142 l 329 -211 l 106 -211 l 106 1128 l 329 1128 l 329 1059 "},"L":{"x_min":48.15625,"x_max":728.40625,"ha":799,"o":"m 48 0 l 48 59 l 158 68 l 158 918 l 48 927 l 48 987 l 158 987 l 240 987 l 350 987 l 350 927 l 240 918 l 240 68 l 650 68 l 656 207 l 728 207 l 728 0 l 48 0 "},"!":{"x_min":96.984375,"x_max":193.296875,"ha":311,"o":"m 185 324 l 104 324 l 104 987 l 185 987 l 185 324 m 193 0 l 96 0 l 96 113 l 193 113 l 193 0 "}," ":{"x_min":0,"x_max":0,"ha":338},"{":{"x_min":42.734375,"x_max":447.625,"ha":473,"o":"m 427 -274 q 251 -156 303 -236 q 199 39 199 -75 l 199 192 q 161 321 199 275 q 42 368 122 368 l 42 438 q 161 484 122 438 q 199 613 199 530 l 199 767 q 251 964 199 883 q 427 1083 303 1045 l 446 1029 q 319 933 359 1001 q 280 767 280 865 l 280 613 q 249 483 280 538 q 155 403 218 428 q 249 321 218 377 q 280 192 280 266 l 280 39 q 320 -124 280 -57 q 447 -219 360 -191 l 427 -274 "},"X":{"x_min":36.625,"x_max":912.890625,"ha":947,"o":"m 36 59 l 119 66 l 426 500 l 129 920 l 46 927 l 46 987 l 318 987 l 318 927 l 223 923 l 473 562 l 723 923 l 630 927 l 630 987 l 901 987 l 901 927 l 818 920 l 522 500 l 829 66 l 912 59 l 912 0 l 642 0 l 642 59 l 735 63 l 474 438 l 213 63 l 307 59 l 307 0 l 36 0 l 36 59 "},"P":{"x_min":48.15625,"x_max":790.125,"ha":865,"o":"m 464 987 q 705 908 619 987 q 790 699 790 829 q 705 489 790 567 q 464 410 619 410 l 239 410 l 239 68 l 349 59 l 349 0 l 48 0 l 48 59 l 158 68 l 158 918 l 48 927 l 48 987 l 158 987 l 464 987 m 239 479 l 464 479 q 648 541 586 479 q 709 697 709 603 q 648 855 709 792 q 464 918 587 918 l 239 918 l 239 479 "},"%":{"x_min":52.21875,"x_max":935.953125,"ha":989,"o":"m 52 797 q 105 942 52 883 q 245 1001 158 1001 q 385 942 332 1001 q 438 797 438 883 l 438 745 q 385 601 438 659 q 246 542 332 542 q 105 601 159 542 q 52 745 52 659 l 52 797 m 118 745 q 151 643 118 685 q 246 601 184 601 q 340 643 307 601 q 373 745 373 685 l 373 797 q 339 900 373 857 q 245 942 306 942 q 151 900 184 942 q 118 797 118 857 l 118 745 m 549 242 q 602 386 549 327 q 741 445 655 445 q 882 386 828 445 q 935 242 935 327 l 935 189 q 882 44 935 103 q 743 -14 828 -14 q 602 44 655 -14 q 549 189 549 103 l 549 242 m 614 189 q 647 87 614 129 q 743 44 680 44 q 836 86 803 44 q 870 189 870 128 l 870 242 q 836 345 870 303 q 741 386 803 386 q 647 344 680 386 q 614 242 614 303 l 614 189 m 298 82 l 248 114 l 730 886 l 780 853 l 298 82 "},"#":{"x_min":42.734375,"x_max":799.625,"ha":845,"o":"m 495 278 l 282 278 l 230 0 l 163 0 l 215 278 l 42 278 l 42 341 l 227 341 l 283 640 l 94 640 l 94 705 l 295 705 l 349 987 l 416 987 l 362 705 l 576 705 l 630 987 l 697 987 l 643 705 l 799 705 l 799 640 l 631 640 l 575 341 l 748 341 l 748 278 l 562 278 l 510 0 l 443 0 l 495 278 m 294 341 l 507 341 l 564 640 l 350 640 l 294 341 "},"_":{"x_min":80.703125,"x_max":678.21875,"ha":779,"o":"m 678 -68 l 80 -68 l 80 0 l 678 0 l 678 -68 "},"+":{"x_min":49.515625,"x_max":726.375,"ha":777,"o":"m 425 501 l 726 501 l 726 425 l 425 425 l 425 99 l 343 99 l 343 425 l 49 425 l 49 501 l 343 501 l 343 817 l 425 817 l 425 501 "},")":{"x_min":7.453125,"x_max":333,"ha":427,"o":"m 333 388 q 239 -54 333 136 q 28 -314 145 -246 l 24 -313 l 7 -266 q 178 -17 105 -197 q 252 387 252 162 l 252 400 q 177 804 252 623 q 7 1054 102 985 l 24 1101 l 28 1102 q 238 840 143 1035 q 333 398 333 644 l 333 388 "},"\u0002":{"x_min":0,"x_max":0,"ha":0},"'":{"x_min":112.578125,"x_max":187.1875,"ha":297,"o":"m 187 925 l 160 739 l 112 739 l 118 919 l 118 1058 l 187 1058 l 187 925 "},"}":{"x_min":18.3125,"x_max":423.21875,"ha":472,"o":"m 18 -219 q 144 -124 104 -191 q 185 39 185 -56 l 185 192 q 217 323 185 268 q 316 402 249 378 q 217 481 249 426 q 185 613 185 536 l 185 767 q 145 933 185 865 q 19 1029 105 1001 l 37 1083 q 213 964 160 1045 q 266 767 266 883 l 266 613 q 304 484 266 530 q 423 438 342 438 l 423 368 q 304 321 342 368 q 266 192 266 275 l 266 39 q 213 -156 266 -75 q 37 -274 161 -236 l 18 -219 "},"a":{"x_min":70.53125,"x_max":716.875,"ha":766,"o":"m 572 0 q 560 64 564 37 q 557 119 557 91 q 448 23 516 61 q 296 -14 381 -14 q 129 41 188 -14 q 70 191 70 96 q 158 353 70 293 q 395 413 245 413 l 557 413 l 557 510 q 506 633 557 588 q 365 678 456 678 q 253 661 304 678 q 169 616 203 644 l 162 518 l 95 518 l 96 659 q 218 722 147 698 q 368 747 288 747 q 564 685 490 747 q 638 508 638 623 l 638 147 q 639 104 638 125 q 643 64 640 84 l 716 59 l 716 0 l 572 0 m 305 57 q 460 98 393 57 q 557 203 527 139 l 557 350 l 394 350 q 217 304 283 350 q 151 189 151 259 q 192 93 151 130 q 305 57 233 57 "},"T":{"x_min":40.6875,"x_max":826.078125,"ha":868,"o":"m 826 987 l 826 779 l 754 779 l 748 918 l 474 918 l 474 68 l 584 59 l 584 0 l 282 0 l 282 59 l 392 68 l 392 918 l 118 918 l 113 779 l 40 779 l 40 987 l 826 987 "},"=":{"x_min":99.703125,"x_max":665.34375,"ha":764,"o":"m 665 564 l 99 564 l 99 636 l 665 636 l 665 564 m 665 286 l 99 286 l 99 358 l 665 358 l 665 286 "},"N":{"x_min":48.15625,"x_max":996.3125,"ha":1042,"o":"m 996 987 l 996 927 l 885 918 l 885 0 l 805 0 l 244 849 l 240 848 l 240 68 l 350 59 l 350 0 l 48 0 l 48 59 l 158 68 l 158 918 l 48 927 l 48 987 l 158 987 l 240 987 l 800 139 l 805 140 l 805 918 l 694 927 l 694 987 l 885 987 l 996 987 "},"2":{"x_min":51.40625,"x_max":682.296875,"ha":757,"o":"m 68 0 l 68 62 l 392 429 q 519 598 482 531 q 556 729 556 666 q 503 876 556 820 q 357 932 451 932 q 186 870 244 932 q 128 703 128 807 l 52 703 l 51 707 q 131 916 48 830 q 357 1001 214 1001 q 561 928 484 1001 q 637 731 637 855 q 586 566 637 650 q 444 379 535 482 l 171 71 l 172 68 l 603 68 l 610 207 l 682 207 l 682 0 l 68 0 "},"j":{"x_min":-8.8125,"x_max":272.640625,"ha":381,"o":"m 272 -60 q 218 -235 272 -173 q 67 -296 164 -296 q 28 -292 46 -296 q -8 -283 10 -289 l 0 -215 q 28 -221 10 -218 q 62 -225 47 -225 q 157 -183 123 -225 q 191 -60 191 -141 l 191 664 l 80 673 l 80 733 l 272 733 l 272 -60 m 268 946 l 187 946 l 187 1058 l 268 1058 l 268 946 "},"Z":{"x_min":62.390625,"x_max":765.03125,"ha":827,"o":"m 62 0 l 62 62 l 643 918 l 158 918 l 152 779 l 80 779 l 80 987 l 742 987 l 742 928 l 158 68 l 686 68 l 692 207 l 765 207 l 765 0 l 62 0 "},"":{"x_min":53.578125,"x_max":186.515625,"ha":319,"o":"m 186 47 q 164 -67 186 -11 q 101 -160 141 -122 l 53 -126 q 94 -44 81 -84 q 107 45 107 -3 l 107 119 l 186 119 l 186 47 "},"u":{"x_min":31.203125,"x_max":781.984375,"ha":836,"o":"m 604 120 q 510 21 570 56 q 368 -14 450 -14 q 187 64 252 -14 q 122 308 122 143 l 122 664 l 31 673 l 31 733 l 122 733 l 202 733 l 202 307 q 248 114 202 172 q 378 56 294 56 q 525 96 470 56 q 602 209 579 137 l 602 664 l 497 673 l 497 733 l 602 733 l 683 733 l 683 68 l 781 59 l 781 0 l 612 0 l 604 120 "},"1":{"x_min":59.6875,"x_max":512.734375,"ha":564,"o":"m 77 59 l 254 68 l 254 901 l 59 873 l 59 930 l 335 990 l 335 68 l 512 59 l 512 0 l 77 0 l 77 59 "},"k":{"x_min":42.046875,"x_max":763,"ha":810,"o":"m 42 997 l 42 1058 l 233 1058 l 233 427 l 319 427 l 542 665 l 541 668 l 474 673 l 474 733 l 732 733 l 732 673 l 647 665 l 396 398 l 681 67 l 763 59 l 763 0 l 505 0 l 505 59 l 582 64 l 327 357 l 233 357 l 233 68 l 343 59 l 343 0 l 42 0 l 42 59 l 152 68 l 152 988 l 42 997 "},"<":{"x_min":51.546875,"x_max":612.4375,"ha":693,"o":"m 196 392 l 122 373 l 122 368 l 196 349 l 612 168 l 612 82 l 51 339 l 51 405 l 612 661 l 612 576 l 196 392 "},"t":{"x_min":44.078125,"x_max":441.515625,"ha":497,"o":"m 252 921 l 252 733 l 413 733 l 413 667 l 252 667 l 252 189 q 278 87 252 117 q 347 56 304 56 q 386 58 367 56 q 429 64 404 60 l 441 4 q 392 -9 421 -4 q 333 -14 362 -14 q 213 34 256 -14 q 170 189 170 83 l 170 667 l 44 667 l 44 733 l 170 733 l 170 921 l 252 921 "},"W":{"x_min":29.15625,"x_max":1306.25,"ha":1314,"o":"m 286 927 l 186 919 l 342 279 l 372 128 l 376 128 l 413 279 l 630 987 l 706 987 l 923 279 l 959 126 l 963 127 l 994 279 l 1148 919 l 1048 927 l 1048 987 l 1306 987 l 1306 927 l 1232 921 l 1002 0 l 925 0 l 695 757 l 670 861 l 666 861 l 641 757 l 409 0 l 333 0 l 103 921 l 29 927 l 29 987 l 286 987 l 286 927 "},"v":{"x_min":31.875,"x_max":759.609375,"ha":783,"o":"m 278 673 l 187 666 l 370 183 l 394 97 l 398 97 l 423 183 l 604 666 l 512 673 l 512 733 l 759 733 l 759 673 l 687 667 l 428 0 l 363 0 l 103 667 l 31 673 l 31 733 l 278 733 l 278 673 "},">":{"x_min":84.78125,"x_max":657.203125,"ha":716,"o":"m 84 572 l 84 655 l 657 399 l 657 333 l 84 76 l 84 160 l 512 346 l 585 364 l 585 368 l 512 388 l 84 572 "},"s":{"x_min":78.671875,"x_max":613.109375,"ha":695,"o":"m 598 507 l 531 507 l 522 611 q 445 660 491 642 q 338 678 398 678 q 205 639 249 678 q 160 550 160 601 q 199 465 160 499 q 352 407 237 432 q 548 327 482 378 q 613 190 613 277 q 538 42 613 99 q 342 -14 464 -14 q 194 8 261 -14 q 78 72 127 31 l 78 220 l 144 220 l 155 115 q 238 68 188 83 q 342 54 288 54 q 481 92 430 54 q 532 186 532 131 q 490 276 532 238 q 337 339 447 315 q 142 415 206 368 q 79 547 79 462 q 150 689 79 631 q 338 747 221 747 q 485 722 419 747 q 594 655 552 697 l 598 507 "},"B":{"x_min":48.15625,"x_max":815.21875,"ha":897,"o":"m 446 987 q 686 922 600 987 q 772 727 772 857 q 729 595 772 651 q 612 517 686 539 q 758 432 702 501 q 815 274 815 364 q 729 71 815 142 q 499 0 643 0 l 48 0 l 48 59 l 158 68 l 158 918 l 48 927 l 48 987 l 158 987 l 446 987 m 239 476 l 239 68 l 499 68 q 671 122 609 68 q 733 273 733 176 q 677 419 733 362 q 512 476 620 476 l 239 476 m 239 544 l 466 544 q 632 591 573 544 q 691 730 691 638 q 628 871 691 824 q 446 918 566 918 l 239 918 l 239 544 "},"?":{"x_min":44.703125,"x_max":558.859375,"ha":627,"o":"m 244 274 q 259 397 245 362 q 337 490 274 432 q 443 616 409 564 q 477 747 477 668 q 431 881 477 834 q 299 929 385 929 q 170 882 219 929 q 121 756 122 836 l 46 756 l 44 760 q 114 937 42 872 q 299 1001 187 1001 q 490 933 421 1001 q 558 748 558 864 q 513 585 558 656 q 385 437 468 514 q 334 370 343 401 q 325 274 325 339 l 244 274 m 336 0 l 242 0 l 242 104 l 336 104 l 336 0 "},"H":{"x_min":48.15625,"x_max":992.234375,"ha":1042,"o":"m 48 927 l 48 987 l 349 987 l 349 927 l 239 918 l 239 523 l 800 523 l 800 918 l 690 927 l 690 987 l 800 987 l 881 987 l 992 987 l 992 927 l 881 918 l 881 68 l 992 59 l 992 0 l 690 0 l 690 59 l 800 68 l 800 454 l 239 454 l 239 68 l 349 59 l 349 0 l 48 0 l 48 59 l 158 68 l 158 918 l 48 927 "},"c":{"x_min":65.78125,"x_max":656.640625,"ha":742,"o":"m 379 54 q 521 100 459 54 q 583 228 583 146 l 655 228 l 656 224 q 575 54 659 122 q 379 -14 491 -14 q 147 88 229 -14 q 65 352 65 191 l 65 381 q 147 644 65 541 q 378 747 229 747 q 533 715 463 747 q 648 628 604 683 l 651 468 l 582 468 l 569 598 q 488 656 537 635 q 378 678 440 678 q 203 593 260 678 q 147 381 147 509 l 147 352 q 203 138 147 222 q 379 54 259 54 "},"&":{"x_min":50.1875,"x_max":808.4375,"ha":861,"o":"m 250 538 q 169 662 196 607 q 143 777 143 718 q 203 943 143 885 q 368 1001 263 1001 q 523 946 466 1001 q 581 808 581 891 q 550 702 581 746 q 462 615 520 659 l 355 532 l 634 206 q 685 314 667 255 q 704 441 704 374 l 779 441 q 754 282 779 354 q 682 150 729 209 l 808 3 l 807 0 l 713 0 l 630 95 q 504 14 573 42 q 356 -14 436 -14 q 132 58 215 -14 q 50 251 50 130 q 99 398 50 333 q 241 531 148 463 l 250 538 m 356 54 q 478 78 419 54 q 585 148 537 103 l 304 475 q 298 481 301 478 q 295 486 296 483 l 263 461 q 158 346 185 398 q 130 251 130 295 q 188 110 130 167 q 356 54 246 54 m 225 779 q 246 685 225 734 q 311 583 267 636 l 431 673 q 487 737 471 704 q 504 808 504 770 q 468 897 504 862 q 368 932 432 932 q 262 888 299 932 q 225 779 225 844 "},"I":{"x_min":61.71875,"x_max":364.203125,"ha":425,"o":"m 61 927 l 61 987 l 364 987 l 364 927 l 253 918 l 253 68 l 364 59 l 364 0 l 61 0 l 61 59 l 172 68 l 172 918 l 61 927 "},"ə":{"x_min":63.75,"x_max":663.296875,"ha":726,"o":"m 343 747 q 572 645 480 747 q 663 387 663 543 l 663 350 q 572 89 663 192 q 354 -13 481 -13 q 141 71 218 -13 q 63 299 63 155 l 63 368 l 581 368 l 581 387 q 515 595 581 511 q 343 678 449 678 q 213 657 266 678 q 122 596 160 636 l 88 653 q 191 721 128 695 q 343 747 255 747 m 354 54 q 503 123 442 54 q 575 295 564 191 l 573 299 l 145 299 l 145 279 q 201 119 145 183 q 354 54 257 54 "},"G":{"x_min":64.4375,"x_max":840.3125,"ha":963,"o":"m 840 108 q 717 25 805 65 q 498 -14 630 -14 q 185 124 305 -14 q 64 486 64 263 l 64 507 q 185 864 64 727 q 501 1001 305 1001 q 698 964 613 1001 q 837 863 784 927 l 837 691 l 774 691 l 760 836 q 656 906 720 880 q 507 932 592 932 q 242 814 339 932 q 145 509 145 696 l 145 486 q 241 174 145 294 q 498 54 336 54 q 663 79 594 54 q 759 132 731 104 l 759 372 l 569 375 l 569 441 l 840 441 l 840 108 "},"Ὅ":{"x_min":-100.65625,"x_max":920.34375,"ha":996,"o":"m 0 0 l 0 0 m 920 486 q 801 125 920 264 q 493 -14 682 -14 q 188 125 305 -14 q 71 486 71 265 l 71 499 q 188 861 71 721 q 492 1001 305 1001 q 801 861 682 1001 q 920 499 920 721 l 920 486 m 838 501 q 745 811 838 693 q 492 930 651 930 q 244 811 335 930 q 153 501 153 693 l 153 486 q 244 174 153 293 q 493 56 336 56 q 746 174 653 56 q 838 486 838 293 l 838 501 m 48 911 l 139 1126 l 226 1126 l 226 1112 l 96 902 l 48 902 l 48 911 m -100 966 q -72 1064 -100 1019 q 5 1134 -44 1109 l 39 1100 q -8 1040 6 1073 q -24 961 -24 1007 l -24 901 l -100 901 l -100 966 "},"`":{"x_min":56.96875,"x_max":299.78125,"ha":381,"o":"m 299 820 l 220 820 l 56 997 l 58 1001 l 162 1001 l 299 820 "},"(":{"x_min":77.3125,"x_max":402.859375,"ha":431,"o":"m 77 398 q 171 840 77 644 q 381 1101 265 1035 l 385 1101 l 402 1051 q 231 803 304 982 q 158 400 158 625 l 158 387 q 231 -15 158 162 q 402 -266 304 -193 l 385 -314 l 381 -314 q 170 -54 263 -246 q 77 388 77 136 l 77 398 "},"U":{"x_min":40.6875,"x_max":967.828125,"ha":1009,"o":"m 342 987 l 342 927 l 231 918 l 231 318 q 306 123 231 191 q 501 54 381 54 q 699 122 623 54 q 776 318 776 191 l 776 918 l 666 927 l 666 987 l 967 987 l 967 927 l 857 918 l 857 318 q 758 71 857 156 q 501 -14 659 -14 q 248 71 345 -14 q 151 318 151 157 l 151 918 l 40 927 l 40 987 l 151 987 l 231 987 l 342 987 "},"◊":{"x_min":37.296875,"x_max":659.90625,"ha":703,"o":"m 315 987 l 380 987 l 659 493 l 381 0 l 316 0 l 37 493 l 315 987 m 575 493 l 373 862 l 349 920 l 345 920 l 320 862 l 121 493 l 322 124 l 347 66 l 351 66 l 376 124 l 575 493 "},"F":{"x_min":48.15625,"x_max":788.765625,"ha":853,"o":"m 48 59 l 158 68 l 158 918 l 48 927 l 48 987 l 788 987 l 788 770 l 716 770 l 710 918 l 239 918 l 239 532 l 651 532 l 651 462 l 239 462 l 239 68 l 349 59 l 349 0 l 48 0 l 48 59 "},"r":{"x_min":60.359375,"x_max":518.84375,"ha":558,"o":"m 241 733 l 251 611 l 251 602 q 336 709 282 670 q 464 747 390 747 q 494 745 480 747 q 518 739 509 742 l 507 663 l 447 668 q 321 624 370 668 q 251 506 272 581 l 251 68 l 362 59 l 362 0 l 60 0 l 60 59 l 170 68 l 170 664 l 60 673 l 60 733 l 170 733 l 241 733 "},":":{"x_min":88.84375,"x_max":182.265625,"ha":264,"o":"m 88 0 l 88 0 m 182 0 l 89 0 l 89 111 l 182 111 l 182 0 m 182 621 l 89 621 l 89 732 l 182 732 l 182 621 "},"x":{"x_min":49.515625,"x_max":767.75,"ha":808,"o":"m 49 59 l 131 67 l 363 373 l 142 666 l 59 673 l 59 733 l 308 733 l 308 673 l 232 669 l 407 434 l 583 670 l 507 673 l 507 733 l 756 733 l 756 673 l 674 666 l 453 373 l 685 67 l 767 59 l 767 0 l 519 0 l 519 59 l 594 63 l 408 312 l 222 63 l 297 59 l 297 0 l 49 0 l 49 59 "},"*":{"x_min":44.765625,"x_max":596.15625,"ha":646,"o":"m 269 678 l 44 751 l 66 819 l 291 736 l 288 987 l 359 987 l 354 734 l 573 820 l 596 752 l 370 674 l 521 474 l 463 432 l 318 638 l 180 433 l 122 474 l 269 678 "},"V":{"x_min":35.265625,"x_max":951.546875,"ha":987,"o":"m 291 927 l 199 919 l 472 166 l 491 101 l 495 101 l 515 166 l 787 919 l 695 927 l 695 987 l 951 987 l 951 927 l 874 921 l 531 0 l 455 0 l 111 921 l 35 927 l 35 987 l 291 987 l 291 927 "},"h":{"x_min":42.046875,"x_max":824.046875,"ha":880,"o":"m 42 997 l 42 1058 l 233 1058 l 233 608 q 330 710 269 674 q 473 747 392 747 q 651 675 589 747 q 713 452 713 603 l 713 68 l 824 59 l 824 0 l 521 0 l 521 59 l 632 68 l 632 453 q 584 624 632 573 q 455 676 537 676 q 315 633 371 676 q 233 516 259 589 l 233 68 l 343 59 l 343 0 l 42 0 l 42 59 l 152 68 l 152 988 l 42 997 "},"0":{"x_min":82.0625,"x_max":695.859375,"ha":785,"o":"m 695 383 q 614 88 695 191 q 389 -14 533 -14 q 163 89 245 -14 q 82 383 82 192 l 82 603 q 163 897 82 794 q 387 1001 244 1001 q 614 897 532 1001 q 695 603 695 794 l 695 383 m 614 617 q 556 850 614 769 q 387 932 498 932 q 220 850 278 932 q 162 617 162 768 l 162 370 q 221 137 162 220 q 389 54 280 54 q 556 137 499 54 q 614 370 614 219 l 614 617 "},".":{"x_min":98.34375,"x_max":191.265625,"ha":316,"o":"m 191 0 l 98 0 l 98 111 l 191 111 l 191 0 "},"@":{"x_min":57.25,"x_max":1164.078125,"ha":1227,"o":"m 1163 347 q 1083 93 1156 201 q 871 -14 1011 -14 q 782 20 818 -14 q 735 115 746 54 q 647 18 699 50 q 524 -14 594 -14 q 389 66 436 -14 q 356 282 343 147 q 452 558 372 454 q 646 662 532 662 q 748 644 709 662 q 834 589 787 626 l 832 588 l 834 588 l 800 198 q 821 76 794 109 q 885 44 848 44 q 1038 128 982 44 q 1100 347 1093 212 q 999 757 1113 611 q 640 904 885 904 q 278 744 420 904 q 124 324 136 584 q 235 -91 111 67 q 588 -249 359 -249 q 708 -234 647 -249 q 811 -196 769 -219 l 832 -246 q 719 -290 789 -274 q 585 -307 649 -307 q 186 -138 327 -307 q 58 324 45 31 q 229 787 70 611 q 642 963 388 963 q 1041 799 908 963 q 1163 347 1174 635 m 431 282 q 448 114 420 177 q 542 52 477 52 q 648 81 600 52 q 731 187 695 110 q 731 193 731 191 q 732 198 731 196 l 764 567 q 715 591 742 582 q 657 600 689 600 q 506 520 566 600 q 431 282 446 439 "},"f":{"x_min":54.265625,"x_max":478.140625,"ha":492,"o":"m 54 667 l 54 733 l 175 733 l 175 841 q 231 1011 175 951 q 386 1072 286 1072 q 431 1068 408 1072 q 478 1059 454 1065 l 467 992 q 434 998 451 996 q 394 1001 417 1001 q 292 959 328 1001 q 257 841 257 916 l 257 733 l 432 733 l 432 667 l 257 667 l 257 68 l 367 59 l 367 0 l 65 0 l 65 59 l 175 68 l 175 667 l 54 667 "},";":{"x_min":43.6875,"x_max":186.796875,"ha":265,"o":"m 44 0 l 44 0 m 184 623 l 91 623 l 91 734 l 184 734 l 184 623 m 186 32 q 161 -89 186 -29 q 91 -190 135 -149 l 43 -155 q 90 -66 75 -110 q 106 31 106 -22 l 106 127 l 186 127 l 186 32 "},"i":{"x_min":60.359375,"x_max":362.171875,"ha":433,"o":"m 60 59 l 170 68 l 170 664 l 60 673 l 60 733 l 251 733 l 251 68 l 362 59 l 362 0 l 60 0 l 60 59 m 251 944 l 170 944 l 170 1058 l 251 1058 l 251 944 "},"6":{"x_min":82.0625,"x_max":693.828125,"ha":762,"o":"m 417 1001 q 517 990 467 1001 q 605 956 567 978 l 585 891 q 508 922 547 912 q 417 932 470 932 q 232 842 302 932 q 162 568 162 752 l 162 535 q 266 619 203 588 q 406 651 329 651 q 616 560 539 651 q 693 321 693 468 q 610 80 693 175 q 394 -14 527 -14 q 169 89 257 -14 q 82 381 82 192 l 82 560 q 176 889 82 776 q 417 1001 269 1001 m 389 585 q 246 542 307 585 q 162 432 185 499 l 162 375 q 227 137 162 221 q 394 54 291 54 q 553 131 493 54 q 612 321 612 209 q 554 512 612 440 q 389 585 497 585 "},"A":{"x_min":37.296875,"x_max":958.328125,"ha":1007,"o":"m 37 59 l 109 65 l 460 987 l 537 987 l 884 65 l 958 59 l 958 0 l 714 0 l 714 59 l 800 66 l 719 287 l 276 287 l 193 66 l 280 59 l 280 0 l 37 0 l 37 59 m 303 360 l 693 360 l 501 882 l 497 882 l 303 360 "},"n":{"x_min":50.859375,"x_max":832.859375,"ha":895,"o":"m 50 59 l 161 68 l 161 664 l 50 673 l 50 733 l 233 733 l 240 605 q 336 710 276 673 q 478 747 396 747 q 659 674 597 747 q 722 446 722 601 l 722 68 l 832 59 l 832 0 l 530 0 l 530 59 l 640 68 l 640 446 q 593 624 640 572 q 459 676 546 676 q 320 631 374 676 q 242 512 266 586 l 242 68 l 353 59 l 353 0 l 50 0 l 50 59 "},"O":{"x_min":71.890625,"x_max":920.34375,"ha":996,"o":"m 920 486 q 801 125 920 264 q 493 -14 682 -14 q 188 125 305 -14 q 71 486 71 265 l 71 499 q 188 861 71 721 q 492 1001 305 1001 q 801 861 682 1001 q 920 499 920 721 l 920 486 m 838 501 q 745 811 838 693 q 492 930 651 930 q 244 811 335 930 q 153 501 153 693 l 153 486 q 244 174 153 293 q 493 56 336 56 q 746 174 653 56 q 838 486 838 293 l 838 501 "},"﻿":{"x_min":0,"x_max":0,"ha":0},"3":{"x_min":50.734375,"x_max":666.015625,"ha":747,"o":"m 253 537 l 347 537 q 510 591 455 537 q 566 730 566 645 q 514 877 566 822 q 359 932 461 932 q 203 876 263 932 q 142 729 142 820 l 66 729 l 65 733 q 146 925 61 848 q 359 1001 230 1001 q 569 929 491 1001 q 647 727 647 856 q 604 596 647 657 q 482 505 560 535 q 620 416 574 478 q 666 267 666 353 q 580 61 666 136 q 362 -14 495 -14 q 140 59 232 -14 q 50 263 47 132 l 52 267 l 127 267 q 192 113 127 173 q 362 54 258 54 q 526 108 467 54 q 585 265 585 163 q 523 418 585 368 q 347 468 461 468 l 253 468 l 253 537 "},"]":{"x_min":15.59375,"x_max":239.40625,"ha":357,"o":"m 15 1128 l 239 1128 l 239 -211 l 15 -211 l 15 -142 l 158 -142 l 158 1059 l 15 1059 l 15 1128 "},"m":{"x_min":48.15625,"x_max":1294.046875,"ha":1329,"o":"m 48 673 l 48 733 l 230 733 l 238 612 q 332 712 273 676 q 472 747 391 747 q 613 706 556 747 q 693 581 669 665 q 788 702 727 658 q 937 747 849 747 q 1119 669 1055 747 q 1183 427 1183 591 l 1183 69 l 1294 59 l 1294 0 l 990 0 l 990 59 l 1101 69 l 1101 429 q 1053 620 1101 564 q 920 676 1005 676 q 774 616 825 676 q 710 462 722 556 q 711 452 710 457 q 711 440 711 447 l 711 68 l 822 59 l 822 0 l 519 0 l 519 59 l 630 68 l 630 429 q 581 619 630 562 q 448 676 533 676 q 310 633 361 676 q 240 515 260 589 l 240 68 l 350 59 l 350 0 l 48 0 l 48 59 l 158 68 l 158 664 l 48 673 "},"9":{"x_min":56.96875,"x_max":672.125,"ha":772,"o":"m 342 54 q 522 142 457 54 q 588 414 588 230 l 588 442 q 491 347 551 381 q 356 314 430 314 q 139 407 221 314 q 56 649 56 500 q 143 900 56 799 q 357 1001 229 1001 q 587 907 501 1001 q 672 622 672 813 l 672 415 q 582 92 672 199 q 342 -14 493 -14 q 236 -4 290 -14 q 134 27 183 6 l 149 94 q 241 63 196 73 q 342 54 286 54 m 356 382 q 503 427 444 382 q 588 539 562 472 l 588 628 q 527 857 588 781 q 360 932 466 932 q 203 849 265 932 q 141 649 141 767 q 199 458 141 535 q 356 382 257 382 "},"l":{"x_min":49.515625,"x_max":351.3125,"ha":414,"o":"m 49 997 l 49 1058 l 240 1058 l 240 68 l 351 59 l 351 0 l 49 0 l 49 59 l 160 68 l 160 988 l 49 997 "},"8":{"x_min":62.390625,"x_max":697.21875,"ha":764,"o":"m 669 733 q 622 593 669 653 q 498 505 576 533 q 642 413 588 478 q 697 261 697 347 q 608 57 697 128 q 380 -14 519 -14 q 150 56 238 -14 q 62 261 62 128 q 115 414 62 349 q 259 506 169 478 q 135 593 181 533 q 90 733 90 653 q 170 931 90 860 q 379 1001 250 1001 q 587 930 505 1001 q 669 733 669 859 m 616 261 q 548 413 616 354 q 379 472 480 472 q 209 413 276 472 q 143 261 143 354 q 208 109 143 164 q 380 54 274 54 q 549 109 482 54 q 616 261 616 164 m 588 733 q 528 875 588 819 q 379 932 467 932 q 229 878 287 932 q 170 733 170 824 q 229 593 170 646 q 380 541 287 541 q 529 593 470 541 q 588 733 588 646 "},"p":{"x_min":44.078125,"x_max":745.359375,"ha":812,"o":"m 44 673 l 44 733 l 222 733 l 232 619 q 327 714 269 680 q 463 747 385 747 q 670 641 596 747 q 745 360 745 536 l 745 346 q 670 83 745 181 q 465 -14 596 -14 q 329 15 387 -14 q 235 99 271 44 l 235 -212 l 345 -221 l 345 -282 l 44 -282 l 44 -221 l 154 -212 l 154 664 l 44 673 m 663 360 q 608 588 663 500 q 445 676 552 676 q 312 637 363 676 q 235 536 261 598 l 235 183 q 315 88 263 123 q 446 54 368 54 q 608 134 553 54 q 663 346 663 214 l 663 360 "},"4":{"x_min":42.734375,"x_max":740.625,"ha":799,"o":"m 585 318 l 740 318 l 740 249 l 585 249 l 585 68 l 696 59 l 696 0 l 394 0 l 394 59 l 505 68 l 505 249 l 42 249 l 42 295 l 497 987 l 585 987 l 585 318 m 139 318 l 505 318 l 505 881 l 501 882 l 466 808 l 139 318 "},"R":{"x_min":48.15625,"x_max":885.078125,"ha":932,"o":"m 458 986 q 702 917 617 986 q 787 717 787 848 q 741 578 787 640 q 613 489 696 516 q 745 406 705 465 q 786 257 786 347 l 786 166 q 802 89 786 114 q 851 62 818 64 l 885 60 l 885 0 l 833 0 q 733 48 761 0 q 704 168 704 97 l 704 255 q 647 397 704 345 q 487 452 590 450 l 239 452 l 239 68 l 349 59 l 349 0 l 48 0 l 48 59 l 158 68 l 158 917 l 48 927 l 48 986 l 458 986 m 239 521 l 448 521 q 644 575 582 521 q 706 718 706 628 q 644 865 706 813 q 458 917 582 917 l 239 917 l 239 521 "},"\r":{"x_min":0,"x_max":0,"ha":338},"o":{"x_min":65.78125,"x_max":714.84375,"ha":781,"o":"m 65 377 q 154 643 65 539 q 389 747 243 747 q 626 643 537 747 q 714 377 714 539 l 714 355 q 626 89 714 192 q 391 -14 537 -14 q 154 89 243 -14 q 65 355 65 192 l 65 377 m 147 355 q 211 141 147 227 q 391 54 276 54 q 569 141 504 54 q 633 355 633 227 l 633 377 q 568 590 633 503 q 389 678 503 678 q 211 590 276 678 q 147 377 147 503 l 147 355 "},"5":{"x_min":65.640625,"x_max":647.703125,"ha":726,"o":"m 560 826 l 552 912 l 200 912 l 163 560 q 245 612 200 594 q 366 632 290 630 q 570 548 493 634 q 647 314 647 461 q 572 75 647 164 q 346 -14 497 -14 q 143 53 224 -14 q 65 255 62 122 l 67 259 l 139 259 q 196 107 139 160 q 346 54 252 54 q 511 120 457 54 q 566 313 566 187 q 511 490 566 423 q 358 557 457 557 q 213 527 263 557 q 141 436 164 497 l 75 446 l 130 987 l 626 987 l 626 826 l 560 826 "}}}
